<svg xmlns="http://www.w3.org/2000/svg" viewBox="0 0 64 64" role="img" aria-label="Michigan Court Rules search"><rect width="64" height="64" rx="12" fill="#277C78"/><g transform="translate(12.82 10.0) scale(0.44)"><path d="M39.16 99.01 L41.4 96.96 L42.86 93.5 L44.17 91.58 L45.16 88.87 L45.69 86.16 L45.87 83.5 L45.68 80.1 L45.18 78.1 L43.7 74.71 L42.25 70.0 L42.38 69.49 L43.3 68.04 L43.45 67.31 L43.1 64.97 L42.54 63.63 L43.46 62.68 L45.22 59.21 L45.74 55.8 L45.33 54.31 L45.44 53.77 L46.99 53.27 L47.35 52.54 L52.58 52.69 L53.24 51.08 L53.26 50.83 L52.89 50.74 L53.23 50.27 L53.38 49.53 L53.87 49.27 L53.98 49.73 L53.75 49.85 L53.57 51.35 L52.99 51.93 L52.76 52.82 L53.3 53.01 L53.54 52.7 L53.6 52.15 L54.0 51.82 L54.73 50.19 L55.05 48.07 L54.81 45.51 L55.0 44.96 L56.76 43.64 L57.48 43.43 L58.69 43.57 L59.49 43.34 L60.0 42.93 L59.9 42.63 L59.15 42.55 L59.28 42.68 L58.6 42.41 L58.08 41.79 L57.79 40.83 L57.75 40.27 L58.23 39.44 L58.97 39.02 L59.66 38.19 L59.58 37.79 L58.89 37.42 L61.15 37.64 L61.43 37.41 L61.3 37.11 L61.96 37.0 L62.14 37.33 L64.91 39.09 L65.28 38.83 L65.84 39.04 L66.35 38.9 L67.72 39.48 L68.54 40.47 L68.61 41.07 L68.9 41.47 L70.6 41.54 L72.05 42.68 L72.98 42.77 L74.31 43.7 L75.51 43.65 L76.24 44.65 L76.64 44.91 L76.61 45.2 L76.34 45.35 L76.62 45.94 L76.92 46.62 L77.4 46.94 L77.94 48.72 L76.49 48.05 L75.89 48.64 L76.14 49.01 L75.94 49.28 L76.01 49.87 L76.55 50.62 L77.35 50.97 L77.57 51.75 L77.6 53.04 L77.86 53.54 L77.41 55.16 L77.48 56.21 L77.17 59.4 L76.77 59.48 L76.16 60.38 L75.3 60.31 L74.86 61.03 L74.6 62.97 L74.4 63.31 L74.48 63.65 L73.43 63.97 L73.43 64.62 L71.6 64.81 L70.91 65.91 L70.71 67.96 L70.42 68.23 L71.06 69.7 L72.45 70.15 L73.58 70.82 L74.95 69.01 L75.61 68.92 L76.04 68.2 L76.06 67.81 L76.36 67.53 L76.4 67.11 L77.22 66.37 L77.06 65.88 L77.76 65.48 L77.99 64.94 L80.12 64.48 L80.57 63.83 L81.76 63.44 L83.69 64.69 L84.83 67.13 L85.13 69.29 L85.22 70.84 L85.86 73.19 L86.04 76.45 L86.44 78.35 L87.21 79.84 L86.62 81.66 L86.47 84.03 L86.04 85.97 L85.37 86.79 L84.93 86.74 L84.26 87.34 L84.5 86.91 L84.24 86.26 L83.97 86.12 L84.29 85.94 L84.22 85.67 L84.86 85.43 L84.94 85.08 L84.27 84.7 L82.87 85.45 L82.81 85.83 L83.14 86.03 L83.21 86.62 L82.52 86.69 L82.12 87.61 L82.25 88.37 L79.15 88.47 L82.25 88.38 L81.67 89.9 L80.14 90.43 L79.79 90.85 L79.45 91.64 L79.39 93.96 L78.79 94.3 L78.8 95.2 L78.13 95.75 L77.9 96.26 L77.4 96.31 L77.12 97.17 L76.79 97.26 L76.03 98.27 L76.22 99.31 L61.16 100.0 L61.16 99.28 L60.95 99.02 L50.42 99.03 L39.16 99.01ZM45.16 88.87 L55.79 88.86 L63.06 88.82 L53.13 88.83 L45.16 88.87ZM53.1 83.49 L56.77 83.47 L50.52 83.49 L45.87 83.5 L53.1 83.49ZM50.43 75.41 L50.43 76.76 L50.52 83.49 L50.43 75.41ZM55.64 75.39 L52.92 75.39 L47.72 75.41 L50.43 75.41 L55.64 75.39ZM52.92 72.72 L52.92 67.37 L52.92 75.39 L52.92 72.72ZM47.73 67.37 L47.72 72.73 L47.72 75.41 L47.73 67.37ZM47.69 61.95 L49.12 61.96 L43.93 61.78 L47.69 61.95ZM70.61 46.03 L71.24 46.02 L76.62 45.94 L70.61 46.03ZM73.22 70.74 L73.26 76.51 L73.26 76.51 L73.22 70.74ZM75.76 69.65 L79.56 69.52 L85.13 69.29 L75.76 69.65ZM45.72 94.22 L45.71 91.57 L45.68 99.02 L45.72 94.22ZM65.94 78.11 L65.98 83.41 L73.36 83.26 L65.98 83.38 L65.94 78.11ZM73.36 83.26 L73.6 88.65 L73.33 81.91 L73.36 83.26ZM79.72 81.64 L83.69 81.5 L73.33 81.91 L79.72 81.64ZM60.82 83.46 L60.3 83.46 L63.61 83.46 L60.82 83.46ZM68.51 88.78 L68.84 88.78 L66.95 88.8 L68.51 88.78ZM53.63 61.99 L56.34 62.0 L55.4 61.99 L53.63 61.99ZM61.95 46.02 L65.95 46.07 L66.51 46.06 L61.95 46.02ZM63.32 62.06 L64.33 62.05 L62.49 62.05 L63.32 62.06ZM68.11 71.17 L68.13 62.05 L68.08 72.5 L68.11 71.17ZM75.82 76.49 L77.01 76.3 L73.37 76.51 L75.82 76.49ZM79.71 74.88 L76.98 74.96 L79.53 74.89 L79.71 74.88ZM48.89 49.61 L49.57 50.07 L50.25 49.9 L50.91 48.34 L51.46 47.95 L52.3 46.25 L52.66 46.35 L53.16 45.89 L53.25 46.4 L52.51 46.83 L52.35 47.17 L52.88 48.46 L52.54 48.51 L52.27 49.06 L52.46 49.27 L52.49 50.26 L52.23 50.35 L51.97 51.07 L52.07 52.59 L47.35 52.54 L47.37 50.73 L47.73 50.43 L48.05 50.68 L48.36 50.58 L48.89 49.61ZM47.13 49.01 L46.69 49.18 L46.44 48.97 L46.6 48.51 L46.86 48.38 L47.29 48.66 L47.05 48.73 L47.13 49.01ZM47.44 46.97 L47.6 46.69 L48.4 47.0 L48.4 48.17 L48.18 48.27 L47.51 47.58 L47.44 46.97ZM30.91 47.63 L30.06 47.48 L29.28 46.5 L29.17 46.08 L30.19 43.91 L30.09 43.45 L29.69 43.13 L29.06 43.71 L27.99 43.89 L27.57 43.67 L27.87 42.61 L28.61 41.43 L28.62 39.63 L28.27 38.97 L28.74 38.66 L27.79 37.59 L26.45 36.88 L25.57 37.12 L24.87 36.52 L25.56 35.7 L25.06 34.99 L24.44 34.58 L23.74 34.52 L23.63 34.3 L23.13 34.48 L22.25 33.9 L21.02 33.87 L20.82 33.45 L19.09 33.92 L18.95 33.53 L17.46 33.39 L14.09 31.51 L3.24 28.55 L3.25 28.19 L2.74 26.96 L2.33 26.36 L1.46 25.75 L0.19 25.35 L0.0 25.02 L0.99 24.38 L4.25 23.35 L6.21 21.48 L7.6 20.95 L8.71 21.13 L10.93 20.74 L12.97 19.68 L14.05 18.45 L15.59 18.38 L16.18 17.84 L16.66 16.79 L18.02 15.94 L19.02 14.96 L20.1 14.55 L21.79 12.62 L24.37 11.29 L27.12 10.97 L28.52 11.05 L29.45 11.57 L29.49 12.16 L28.36 12.41 L26.82 12.37 L26.73 12.66 L26.97 13.17 L25.7 13.78 L24.57 15.01 L23.87 15.26 L23.71 15.65 L23.82 16.09 L23.28 16.21 L23.11 16.82 L22.54 17.16 L22.35 18.04 L21.87 18.68 L21.51 18.76 L21.08 20.93 L21.31 21.62 L21.57 21.62 L22.26 20.53 L22.52 20.54 L23.81 19.35 L24.79 18.85 L24.9 18.92 L24.31 19.58 L24.44 19.81 L25.46 19.56 L27.44 19.73 L28.03 20.13 L28.72 20.19 L28.9 20.47 L29.17 20.41 L29.32 20.99 L29.68 21.0 L29.83 20.76 L29.93 21.1 L30.76 21.68 L30.9 22.49 L31.55 23.13 L31.77 23.76 L32.15 23.95 L32.33 24.41 L33.07 24.6 L32.97 24.94 L33.16 25.31 L32.96 25.52 L33.25 25.92 L34.43 26.22 L35.98 26.11 L37.06 25.52 L37.5 25.63 L37.83 26.47 L38.3 26.56 L38.61 27.0 L39.26 26.99 L39.39 26.55 L39.77 26.36 L40.13 26.42 L40.54 26.98 L40.7 26.07 L40.42 25.36 L40.76 25.1 L41.03 25.1 L41.31 25.52 L41.1 26.25 L41.31 26.38 L41.51 26.14 L41.51 26.49 L41.76 26.6 L43.03 25.24 L44.33 24.83 L46.39 23.43 L47.06 23.66 L49.62 23.11 L49.61 34.22 L48.99 34.53 L49.09 34.98 L47.36 34.27 L46.41 34.45 L45.88 34.3 L45.12 34.63 L44.61 35.18 L44.31 36.84 L43.61 36.91 L43.36 37.42 L42.54 37.55 L42.29 38.22 L41.82 38.17 L41.75 38.87 L41.3 38.98 L41.42 39.79 L40.66 39.36 L40.32 38.7 L40.89 38.32 L40.83 38.04 L41.25 37.62 L41.27 37.09 L41.79 37.15 L41.86 36.79 L42.08 36.69 L42.1 36.33 L42.39 35.94 L42.25 35.42 L41.79 35.29 L41.11 36.29 L40.29 36.11 L39.98 35.77 L39.62 35.89 L39.72 36.64 L39.2 37.27 L39.01 38.01 L37.86 38.42 L37.64 38.77 L37.42 38.26 L37.52 37.54 L37.38 36.65 L36.91 36.24 L36.62 36.62 L36.55 37.45 L36.67 37.61 L36.48 38.06 L36.6 38.22 L35.37 38.94 L33.62 42.25 L33.68 42.58 L32.97 43.45 L32.47 44.61 L30.7 46.87 L30.58 47.23 L30.91 47.63ZM25.08 27.27 L18.95 27.27 L15.56 27.27 L25.08 27.27ZM30.53 33.95 L30.54 29.93 L30.52 35.29 L30.53 33.95ZM33.24 33.96 L34.6 33.96 L30.53 33.95 L33.24 33.96ZM42.81 31.3 L35.98 31.29 L34.62 31.29 L42.81 31.3ZM20.03 2.04 L19.05 2.77 L16.55 3.66 L15.86 4.12 L15.79 4.45 L16.55 4.44 L16.42 4.61 L13.74 5.65 L12.9 5.22 L12.67 4.85 L13.5 3.94 L17.77 1.97 L19.19 0.8 L20.39 0.25 L20.89 0.35 L21.75 0.0 L21.79 0.16 L20.17 1.5 L20.03 2.04ZM53.53 38.64 L53.74 39.57 L53.23 40.23 L52.31 40.16 L52.18 39.92 L52.46 39.29 L52.45 38.63 L52.81 38.18 L52.87 37.43 L53.58 37.52 L53.36 37.75 L53.61 37.95 L53.53 38.64ZM65.37 36.71 L65.55 37.05 L66.06 37.28 L65.52 38.01 L64.67 37.88 L62.85 35.9 L62.89 35.51 L63.16 35.62 L63.64 36.5 L65.23 37.02 L65.37 36.71ZM64.34 34.18 L64.14 34.21 L64.01 33.38 L63.31 33.33 L62.68 32.96 L62.39 33.32 L62.48 34.14 L62.06 34.24 L61.89 34.57 L62.17 34.96 L61.94 35.17 L62.3 36.0 L61.8 36.27 L60.88 35.7 L60.77 35.3 L59.94 34.8 L58.89 33.57 L57.51 32.97 L56.89 33.04 L55.38 32.31 L54.89 32.47 L54.55 32.17 L54.17 32.42 L53.46 32.28 L51.81 34.24 L50.21 34.04 L49.61 34.22 L49.62 29.97 L49.62 23.11 L53.49 23.33 L56.45 22.1 L59.57 21.89 L58.75 22.99 L58.64 24.48 L58.77 25.32 L58.43 25.63 L58.5 25.97 L58.88 26.35 L59.73 26.2 L59.9 26.5 L60.56 26.5 L60.9 26.9 L62.55 26.23 L63.07 26.27 L63.93 27.29 L64.45 26.97 L64.8 27.05 L64.98 26.75 L64.89 26.54 L65.36 26.02 L67.06 26.11 L67.48 25.51 L68.54 25.57 L68.73 25.97 L68.35 27.29 L68.77 30.02 L68.32 30.29 L67.55 30.16 L67.23 30.55 L67.2 31.03 L67.53 31.22 L68.01 30.9 L68.58 30.96 L68.9 31.46 L69.65 31.71 L69.16 32.31 L70.06 33.23 L70.55 33.25 L71.03 33.75 L71.38 33.81 L71.63 33.34 L72.19 33.8 L72.5 33.45 L72.41 32.94 L71.99 32.6 L71.95 32.06 L72.43 32.33 L73.92 32.13 L74.51 32.35 L75.03 33.56 L75.68 33.97 L75.2 34.91 L74.72 35.08 L73.67 34.57 L71.74 34.63 L71.24 34.22 L69.75 34.37 L68.73 34.06 L67.34 33.97 L68.7 34.07 L66.35 34.41 L65.84 34.78 L65.11 34.07 L64.9 34.21 L64.42 33.87 L64.34 34.18Z" fill="#ffffff"/></g></svg>